<?xml version="1.0" encoding="UTF-8"?>
<svg id="Layer_1" xmlns="http://www.w3.org/2000/svg" version="1.1" viewBox="0 0 72 72">
  <!-- Generator: Adobe Illustrator 30.1.0, SVG Export Plug-In . SVG Version: 2.1.1 Build 136)  -->
  <defs>
    <style>
      .st0 {
        isolation: isolate;
        opacity: .3;
      }

      .st0, .st1 {
        fill: #00318b;
      }

      .st2 {
        fill: #e4e5e8;
      }
    </style>
  </defs>
  <rect class="st2" width="72" height="72"/>
  <path class="st0" d="M19.2,27.5c.4,3.1,2.1,10.3,8.5,16.8,6.5,6.5,13.6,8.1,16.8,8.5,2.3.5,4.7,0,6.5-1.9,2.8-2.8-7.2-12.7-10-10l-1.8,1.8-10-10,1.8-1.8c2.8-2.8-7.2-12.7-10-10s-2.4,4.2-1.9,6.5h.1Z"/>
  <path class="st1" d="M21.1,21.1l10,10c2.7-2.8,2.7-7.2,0-10-2.7-2.7-7.2-2.7-10,0Z"/>
  <path class="st1" d="M41,41l10,10c2.7-2.8,2.7-7.2,0-10-2.7-2.7-7.2-2.7-10,0Z"/>
</svg>