<?xml version="1.0" encoding="UTF-8"?>
<svg id="Layer_1" xmlns="http://www.w3.org/2000/svg" version="1.1" viewBox="0 0 72 72">
  <!-- Generator: Adobe Illustrator 30.1.0, SVG Export Plug-In . SVG Version: 2.1.1 Build 136)  -->
  <defs>
    <style>
      .st0 {
        isolation: isolate;
        opacity: .3;
      }

      .st0, .st1 {
        fill: #00318b;
      }

      .st2 {
        fill: #e4e5e8;
      }
    </style>
  </defs>
  <rect class="st2" width="72" height="72"/>
  <path class="st0" d="M36,57.4l14-24.8c-1.6,1.2-6.7,4.6-14,4.6s-12.3-3.4-14-4.6c4.7,8.3,9.3,16.6,14,24.8Z"/>
  <path class="st1" d="M36,14.6c-8,0-14.4,6.5-14.4,14.4s6.5,14.4,14.4,14.4,14.4-6.5,14.4-14.4-6.5-14.4-14.4-14.4ZM36,35.8c-3.8,0-6.8-3.1-6.8-6.8s3.1-6.8,6.8-6.8,6.8,3.1,6.8,6.8-3.1,6.8-6.8,6.8Z"/>
</svg>