<?xml version="1.0" encoding="UTF-8"?>
<svg id="Layer_2" data-name="Layer 2" xmlns="http://www.w3.org/2000/svg" viewBox="0 0 261.27 122.41">
  <g id="Layer_1-2" data-name="Layer 1">
    <g>
      <polygon points="129.92 25.11 130.47 23.87 131.01 25.11 132.14 24.37 131.92 25.71 133.28 25.69 132.37 26.7 133.52 27.42 132.21 27.78 132.78 29 131.49 28.59 131.31 29.94 130.44 28.9 129.56 29.93 129.4 28.58 128.1 28.98 128.69 27.75 127.38 27.39 128.54 26.68 127.64 25.66 129 25.69 128.79 24.35 129.92 25.11" fill="none" stroke="#00318b" stroke-miterlimit="10"/>
      <path d="M115.84,24.39s13.6-13.48,16.66-16.55c.47-.47,1.01-1.33,1.09-1.99.21-1.8-.11-4.93-3.7-4.85-4.71.11-4.48,5.51-2.5,6.92" fill="none" stroke="#00318b" stroke-miterlimit="10" stroke-width="2"/>
      <path d="M150.46,24.75c1.39-1.99,6.79-2.27,6.94,2.44.11,3.59-3.01,3.94-4.81,3.75-.67-.07-1.52-.6-2-1.07-3.09-3.03-16.03-15.83-16.03-15.83l-13.41,12.93,13.17,13.59" fill="none" stroke="#00318b" stroke-miterlimit="10" stroke-width="2"/>
      <path d="M144.89,29.94s-15.17,15.23-18.21,18.32c-.47.48-1,1.34-1.07,2-.19,1.8.16,4.93,3.75,4.81,4.7-.15,4.43-5.56,2.44-6.94" fill="none" stroke="#00318b" stroke-miterlimit="10" stroke-width="2"/>
      <path d="M126.71,14.03l13.19,12.93-13.19,13.33s-12.94-12.8-16.03-15.83c-.48-.47-1.34-1-2-1.07-1.8-.19-4.93.16-4.81,3.75.15,4.7,5.56,4.43,6.94,2.44" fill="none" stroke="#00318b" stroke-miterlimit="10" stroke-width="2"/>
    </g>
    <g>
      <path d="M91.83,122.41c-.59,0-1.1-.09-1.54-.26-.44-.17-.87-.45-1.28-.83-.06-.05-.1-.11-.14-.18-.04-.07-.05-.15-.05-.23,0-.13.05-.24.14-.34.09-.1.2-.15.34-.15.11,0,.21.04.3.13.31.3.64.53,1,.69.36.16.77.24,1.22.24.35,0,.66-.06.94-.17s.5-.27.66-.46.25-.43.25-.69c0-.32-.09-.58-.27-.78-.18-.21-.42-.38-.74-.51-.31-.13-.68-.25-1.09-.36-.36-.09-.7-.19-1-.31-.3-.12-.57-.28-.79-.46-.23-.19-.4-.41-.52-.68s-.18-.58-.18-.94c0-.45.12-.84.36-1.18.24-.34.57-.6.99-.79.42-.19.91-.29,1.45-.29.48,0,.94.08,1.37.24.43.16.78.38,1.04.65.16.15.24.3.24.45,0,.11-.05.22-.15.31s-.21.15-.34.15c-.09,0-.17-.03-.24-.08-.13-.15-.31-.29-.52-.4-.21-.12-.44-.21-.68-.28s-.48-.11-.73-.11c-.36,0-.68.05-.96.16s-.49.26-.65.45-.23.42-.23.69c0,.3.09.55.26.74.17.19.41.35.7.47.29.12.62.23.97.33.39.1.75.2,1.07.33.33.12.61.28.85.46s.42.41.55.69c.13.28.2.63.2,1.04,0,.44-.12.82-.37,1.16-.25.34-.58.61-1,.81s-.9.3-1.43.3Z" fill="#00318b"/>
      <path d="M100.97,113.98h4.22c.13,0,.25.05.34.14.1.09.14.2.14.34s-.05.24-.14.33c-.09.08-.21.12-.34.12h-3.82l.11-.2v2.99l-.12-.13h3.3c.13,0,.25.04.34.13.1.09.14.2.14.34,0,.13-.05.24-.14.33-.09.08-.21.12-.34.12h-3.26l.08-.12v3.07l-.07-.08h3.79c.13,0,.25.05.34.14.1.1.14.2.14.32,0,.13-.05.25-.14.33-.09.09-.21.13-.34.13h-4.22c-.13,0-.25-.05-.34-.14s-.14-.21-.14-.34v-7.33c0-.13.05-.25.14-.34s.21-.14.34-.14Z" fill="#00318b"/>
      <path d="M112.08,122.29c-.15,0-.28-.05-.39-.14s-.17-.21-.17-.34v-7.33c0-.13.05-.25.14-.34.09-.1.21-.14.34-.14h3.27c.44,0,.84.1,1.2.3s.64.48.85.84.31.76.31,1.21c0,.33-.06.64-.19.93-.13.29-.3.54-.52.75-.22.21-.48.37-.76.47l-.26-.18c.27.06.51.16.72.33.21.16.39.37.52.62s.21.54.21.87c.01.29.04.53.06.7.02.17.06.31.11.41.05.1.12.18.2.23.11.07.18.17.22.28.04.12.01.23-.06.34-.05.08-.12.13-.2.16-.09.03-.17.04-.26.02-.09-.01-.17-.04-.24-.08-.12-.07-.24-.18-.36-.31s-.22-.34-.3-.6-.11-.62-.11-1.07c0-.24-.04-.45-.13-.62-.08-.17-.19-.3-.32-.4s-.28-.17-.44-.21-.34-.07-.51-.07h-2.65l.14-.2v3.09c0,.13-.04.25-.12.34-.08.1-.19.14-.32.14ZM112.38,118.07h2.91c.23-.02.45-.1.65-.24.2-.14.37-.34.49-.59.13-.25.19-.55.19-.88,0-.41-.13-.76-.4-1.03s-.6-.42-.99-.42h-2.8l.1-.24v3.61l-.14-.21Z" fill="#00318b"/>
      <path d="M129.85,113.97c.14,0,.26.04.36.13.09.09.14.19.14.32,0,.07-.02.15-.05.23l-3.1,7.33c-.05.1-.11.18-.2.23-.08.05-.17.08-.27.08-.09,0-.17-.04-.25-.09-.08-.05-.15-.12-.18-.22l-3.07-7.32s-.03-.07-.04-.11c0-.04-.01-.08-.01-.12,0-.14.05-.26.16-.34.11-.09.21-.13.32-.13.21,0,.37.11.46.33l2.84,6.77h-.27l2.73-6.78c.1-.21.24-.31.44-.31Z" fill="#00318b"/>
      <path d="M137.03,121.8c0,.13-.05.25-.15.34s-.22.14-.35.14c-.15,0-.27-.05-.36-.14s-.14-.21-.14-.34v-7.33c0-.13.05-.25.14-.34.1-.1.22-.14.37-.14.13,0,.25.05.34.14s.14.21.14.34v7.33Z" fill="#00318b"/>
      <path d="M149.36,114.53c.13.07.21.18.24.32.02.14-.01.28-.11.4-.07.1-.16.15-.27.16-.11.01-.22-.01-.33-.07-.26-.16-.54-.28-.84-.37-.3-.09-.62-.14-.95-.14-.47,0-.9.08-1.28.24-.39.16-.72.39-1.01.68-.28.3-.51.65-.66,1.05s-.24.85-.24,1.33c0,.52.08.99.25,1.4s.39.76.68,1.05.63.51,1.01.66c.38.15.8.23,1.25.23.32,0,.64-.04.94-.13.3-.09.58-.21.84-.38.11-.06.22-.08.34-.06.12.02.21.07.28.17.1.13.14.26.11.4-.03.14-.1.24-.23.31-.2.12-.42.23-.68.32s-.52.17-.79.23c-.27.05-.54.08-.81.08-.57,0-1.11-.1-1.61-.3s-.95-.48-1.35-.85c-.39-.37-.7-.81-.92-1.34s-.33-1.12-.33-1.79c0-.61.11-1.17.32-1.69.21-.52.51-.97.89-1.35.38-.38.83-.67,1.34-.88.51-.21,1.07-.31,1.67-.31.41,0,.81.05,1.2.16.39.11.74.26,1.07.47Z" fill="#00318b"/>
      <path d="M155.78,113.98h4.23c.13,0,.25.05.34.14.1.09.14.2.14.34s-.05.24-.14.33c-.09.08-.21.12-.34.12h-3.82l.11-.2v2.99l-.12-.13h3.3c.13,0,.25.04.34.13.1.09.14.2.14.34,0,.13-.05.24-.14.33-.09.08-.21.12-.34.12h-3.26l.08-.12v3.07l-.07-.08h3.79c.13,0,.25.05.34.14.1.1.14.2.14.32,0,.13-.05.25-.14.33-.09.09-.21.13-.34.13h-4.23c-.13,0-.25-.05-.34-.14-.09-.1-.14-.21-.14-.34v-7.33c0-.13.05-.25.14-.34.1-.1.21-.14.34-.14Z" fill="#00318b"/>
      <path d="M168.76,122.41c-.59,0-1.1-.09-1.54-.26-.44-.17-.87-.45-1.28-.83-.06-.05-.1-.11-.14-.18s-.05-.15-.05-.23c0-.13.04-.24.14-.34.09-.1.2-.15.34-.15.11,0,.21.04.3.13.31.3.64.53,1,.69.36.16.77.24,1.22.24.35,0,.66-.06.94-.17s.5-.27.66-.46.25-.43.25-.69c0-.32-.09-.58-.27-.78-.18-.21-.42-.38-.73-.51-.31-.13-.68-.25-1.09-.36-.36-.09-.7-.19-1-.31-.3-.12-.57-.28-.79-.46-.23-.19-.4-.41-.52-.68s-.18-.58-.18-.94c0-.45.12-.84.36-1.18.24-.34.57-.6.99-.79.42-.19.91-.29,1.45-.29.48,0,.94.08,1.37.24.43.16.78.38,1.04.65.16.15.24.3.24.45,0,.11-.05.22-.15.31-.1.1-.21.15-.34.15-.09,0-.17-.03-.24-.08-.13-.15-.31-.29-.52-.4-.21-.12-.44-.21-.68-.28s-.48-.11-.73-.11c-.36,0-.68.05-.96.16s-.49.26-.65.45-.23.42-.23.69c0,.3.09.55.26.74s.41.35.7.47c.29.12.62.23.97.33.39.1.75.2,1.07.33.33.12.61.28.85.46.24.18.42.41.55.69s.2.63.2,1.04c0,.44-.12.82-.37,1.16-.25.34-.58.61-1,.81s-.9.3-1.43.3Z" fill="#00318b"/>
      <path d="M68,100.24c.43,0,.82.11,1.17.32.35.21.63.51.83.88s.3.8.3,1.27-.1.89-.3,1.27c-.2.38-.48.68-.83.91-.35.23-.74.34-1.17.34h-2.41l.08-.15v2.99c0,.13-.04.25-.13.34-.09.1-.2.14-.33.14-.14,0-.26-.05-.34-.14-.09-.1-.13-.21-.13-.34v-7.33c0-.13.05-.25.14-.34s.21-.14.34-.14h2.78ZM68,104.3c.25,0,.48-.07.68-.21.2-.14.36-.33.48-.58.12-.24.18-.51.18-.8s-.06-.56-.18-.79-.28-.42-.48-.55c-.2-.13-.43-.2-.68-.2h-2.41l.08-.14v3.39l-.08-.12h2.41Z" fill="#00318b"/>
      <path d="M76.68,108.55c-.15,0-.28-.05-.39-.14-.11-.1-.17-.21-.17-.34v-7.33c0-.13.05-.25.14-.34s.21-.14.34-.14h3.28c.44,0,.84.1,1.2.3s.64.48.85.84.31.76.31,1.21c0,.33-.06.64-.19.93s-.3.54-.52.75c-.22.21-.48.37-.76.47l-.26-.18c.27.06.51.16.72.33.21.16.39.37.52.62s.21.54.21.87c.02.29.04.53.06.7.02.17.06.31.11.41.05.1.12.18.2.23.11.07.18.17.22.28.04.12.01.23-.07.34-.05.08-.11.13-.2.16-.09.03-.17.04-.26.02-.09-.01-.17-.04-.24-.08-.12-.07-.24-.18-.36-.31s-.22-.34-.3-.6c-.07-.26-.11-.62-.11-1.07,0-.24-.04-.45-.12-.62s-.19-.3-.32-.4-.28-.17-.45-.21-.34-.07-.51-.07h-2.65l.14-.2v3.09c0,.13-.04.25-.12.34s-.19.14-.32.14ZM76.98,104.32h2.91c.23-.02.45-.1.65-.24.2-.14.37-.34.49-.59.13-.25.19-.55.19-.88,0-.41-.13-.76-.4-1.03s-.59-.42-.99-.42h-2.8l.1-.24v3.61l-.14-.21Z" fill="#00318b"/>
      <path d="M95.92,104.39c0,.61-.1,1.17-.3,1.69-.2.52-.48.97-.84,1.36s-.78.69-1.27.9c-.49.21-1.02.32-1.61.32s-1.11-.11-1.6-.32c-.49-.21-.91-.51-1.27-.9s-.64-.84-.83-1.36c-.19-.52-.29-1.08-.29-1.69s.1-1.17.29-1.69c.19-.52.47-.97.83-1.36.36-.39.78-.69,1.27-.9.49-.21,1.02-.32,1.6-.32s1.12.11,1.61.32c.49.21.91.51,1.27.9.36.39.64.84.84,1.36.2.52.3,1.08.3,1.69ZM94.89,104.39c0-.64-.13-1.21-.38-1.71-.25-.5-.6-.9-1.05-1.18-.45-.29-.96-.43-1.55-.43s-1.09.14-1.54.43c-.45.28-.8.68-1.05,1.17s-.38,1.07-.38,1.72.13,1.21.38,1.72.6.9,1.05,1.18c.45.29.96.43,1.54.43s1.1-.14,1.55-.43.8-.68,1.05-1.18c.25-.5.38-1.07.38-1.72Z" fill="#00318b"/>
      <path d="M102.24,108.55c-.15,0-.27-.05-.36-.14s-.14-.21-.14-.34v-7.33c0-.13.05-.25.14-.34s.21-.14.34-.14h4.17c.13,0,.25.05.34.14.1.09.14.2.14.34,0,.12-.05.22-.14.31-.09.09-.21.14-.34.14h-3.74l.07-.1v2.9l-.06-.13h3.19c.13,0,.25.05.34.14.1.09.14.2.14.34s-.05.23-.14.32c-.1.09-.21.13-.34.13h-3.22l.08-.1v3.39c0,.13-.05.25-.14.34s-.21.14-.34.14Z" fill="#00318b"/>
      <path d="M113.2,100.24h4.23c.13,0,.25.05.34.14.1.09.14.2.14.34s-.05.24-.14.33-.21.12-.34.12h-3.82l.11-.2v2.99l-.12-.13h3.3c.13,0,.25.04.34.13.1.09.14.2.14.34,0,.13-.05.24-.14.33s-.21.12-.34.12h-3.26l.08-.12v3.07l-.07-.08h3.79c.13,0,.25.05.34.14s.14.2.14.32c0,.13-.05.25-.14.33-.1.09-.21.13-.34.13h-4.23c-.13,0-.25-.05-.34-.14s-.14-.21-.14-.34v-7.33c0-.13.05-.25.14-.34s.21-.14.34-.14Z" fill="#00318b"/>
      <path d="M126.18,108.67c-.59,0-1.1-.09-1.54-.26-.44-.17-.87-.45-1.28-.83-.06-.05-.1-.11-.14-.18s-.05-.15-.05-.23c0-.13.04-.24.14-.34.09-.1.2-.15.34-.15.11,0,.21.04.3.13.31.3.64.53,1,.69.36.16.77.24,1.22.24.35,0,.66-.06.94-.17s.5-.27.66-.46.25-.43.25-.69c0-.32-.09-.58-.27-.78-.18-.21-.42-.38-.74-.51-.31-.13-.67-.25-1.09-.36-.36-.09-.7-.19-1-.31s-.57-.28-.8-.46c-.23-.19-.4-.41-.52-.68-.12-.26-.18-.58-.18-.94,0-.45.12-.84.36-1.18.24-.34.57-.6.99-.79.42-.19.91-.29,1.45-.29.48,0,.94.08,1.37.24.43.16.78.38,1.04.65.16.15.24.3.24.45,0,.11-.05.22-.15.31-.1.1-.21.15-.34.15-.09,0-.17-.03-.24-.08-.13-.15-.31-.29-.52-.4-.21-.12-.44-.21-.68-.28-.24-.07-.48-.11-.73-.11-.36,0-.68.05-.96.16s-.49.26-.65.45c-.15.19-.23.42-.23.69,0,.3.09.55.26.74.17.19.41.35.7.47s.62.23.97.33c.39.1.75.2,1.07.33.33.12.61.28.85.46.24.18.42.41.55.69s.2.63.2,1.04c0,.44-.12.82-.37,1.16-.25.34-.58.61-1,.81-.42.2-.9.3-1.43.3Z" fill="#00318b"/>
      <path d="M137.27,108.67c-.59,0-1.1-.09-1.54-.26-.44-.17-.87-.45-1.28-.83-.06-.05-.1-.11-.14-.18s-.05-.15-.05-.23c0-.13.04-.24.14-.34.09-.1.2-.15.34-.15.11,0,.21.04.3.13.31.3.64.53,1,.69.36.16.77.24,1.22.24.35,0,.66-.06.94-.17s.5-.27.66-.46.25-.43.25-.69c0-.32-.09-.58-.27-.78-.18-.21-.42-.38-.74-.51-.31-.13-.67-.25-1.09-.36-.36-.09-.7-.19-1-.31s-.57-.28-.8-.46c-.23-.19-.4-.41-.52-.68-.12-.26-.18-.58-.18-.94,0-.45.12-.84.36-1.18.24-.34.57-.6.99-.79.42-.19.91-.29,1.45-.29.48,0,.94.08,1.37.24.43.16.78.38,1.04.65.16.15.24.3.24.45,0,.11-.05.22-.15.31-.1.1-.21.15-.34.15-.09,0-.17-.03-.24-.08-.13-.15-.31-.29-.52-.4-.21-.12-.44-.21-.68-.28-.24-.07-.48-.11-.73-.11-.36,0-.68.05-.96.16s-.49.26-.65.45c-.15.19-.23.42-.23.69,0,.3.09.55.26.74.17.19.41.35.7.47s.62.23.97.33c.39.1.75.2,1.07.33.33.12.61.28.85.46.24.18.42.41.55.69s.2.63.2,1.04c0,.44-.12.82-.37,1.16-.25.34-.58.61-1,.81-.42.2-.9.3-1.43.3Z" fill="#00318b"/>
      <path d="M146.92,108.06c0,.13-.05.25-.15.34-.1.1-.22.14-.35.14-.15,0-.27-.05-.36-.14s-.14-.21-.14-.34v-7.33c0-.13.05-.25.14-.34s.22-.14.37-.14c.13,0,.25.05.34.14.09.1.14.21.14.34v7.33Z" fill="#00318b"/>
      <path d="M160.77,104.39c0,.61-.1,1.17-.3,1.69-.2.52-.48.97-.84,1.36s-.78.69-1.27.9c-.49.21-1.02.32-1.61.32s-1.11-.11-1.6-.32c-.49-.21-.91-.51-1.27-.9s-.64-.84-.83-1.36c-.19-.52-.29-1.08-.29-1.69s.1-1.17.29-1.69c.19-.52.47-.97.83-1.36.36-.39.78-.69,1.27-.9.49-.21,1.02-.32,1.6-.32s1.12.11,1.61.32c.49.21.91.51,1.27.9.36.39.64.84.84,1.36.2.52.3,1.08.3,1.69ZM159.74,104.39c0-.64-.13-1.21-.38-1.71-.25-.5-.6-.9-1.05-1.18-.45-.29-.96-.43-1.55-.43s-1.09.14-1.54.43c-.45.28-.8.68-1.05,1.17s-.38,1.07-.38,1.72.13,1.21.38,1.72.6.9,1.05,1.18c.45.29.96.43,1.54.43s1.1-.14,1.55-.43.8-.68,1.05-1.18c.25-.5.38-1.07.38-1.72Z" fill="#00318b"/>
      <path d="M172.76,100.24c.13,0,.24.04.32.13.08.09.12.19.12.32v7.36c0,.15-.05.27-.14.36-.1.09-.21.14-.36.14-.06,0-.13-.01-.2-.04-.07-.03-.13-.07-.17-.11l-5.08-6.72.24-.13v6.56c0,.13-.04.23-.12.31s-.19.12-.33.12-.24-.04-.32-.12c-.08-.08-.12-.19-.12-.31v-7.38c0-.15.05-.27.14-.36s.21-.13.33-.13c.07,0,.14.01.22.04.07.03.13.07.17.14l5,6.61-.14.19v-6.53c0-.13.04-.23.12-.32s.19-.13.32-.13Z" fill="#00318b"/>
      <path d="M182.42,101.48l-2.79,6.79c-.03.1-.09.17-.17.23-.08.06-.16.09-.25.09-.15,0-.26-.04-.33-.12-.07-.08-.11-.18-.12-.29,0-.06,0-.12.02-.18l3.07-7.47c.05-.11.11-.19.2-.25s.18-.08.28-.07c.1,0,.2.03.28.08s.14.13.17.24l3.06,7.39c.02.06.04.13.04.19,0,.14-.05.26-.14.34-.1.09-.2.13-.32.13-.1,0-.19-.03-.27-.09-.08-.06-.14-.14-.18-.24l-2.82-6.79h.27ZM180.22,106.33l.4-.93h3.52l.18.93h-4.11Z" fill="#00318b"/>
      <path d="M196.04,107.61c.13,0,.25.05.34.14.1.09.14.2.14.34s-.05.25-.14.33c-.1.09-.21.13-.34.13h-4.11c-.14,0-.26-.05-.35-.14s-.14-.21-.14-.34v-7.33c0-.13.05-.25.14-.34s.22-.14.37-.14c.13,0,.25.05.34.14.09.1.14.21.14.34v7.1l-.24-.21h3.83Z" fill="#00318b"/>
    </g>
    <g>
      <path d="M0,85.75c0-.58.55-1.3,1.51-1.3.65,0,1.18.14,2.69.46.46-.31,1.06-.84,1.06-3.15v-12.02c0-1.73-.17-2.45-.96-2.72v-.34h4.45v.34c-.79.26-.96.99-.96,2.72v7.93c0,5.05-3.17,8.72-6.63,8.72-.75,0-1.15-.07-1.15-.65Z" fill="#00318b"/>
      <path d="M11.17,75.03c0-4.76,3.51-8.53,8.6-8.53,4.06,0,8.58,2.79,8.58,8.68s-4.54,8.58-8.58,8.58-8.6-2.69-8.6-8.72ZM25.93,77.07c-.36-5.12-3.24-9.95-7.4-9.95-3.27,0-5.12,2.55-4.85,6.44.34,4.81,3.39,9.45,7.47,9.45,3.68,0,5-2.76,4.78-5.94Z" fill="#00318b"/>
      <path d="M30.71,83.18c.79-.26.96-.99.96-2.72v-10.72c0-1.73-.17-2.45-.96-2.72v-.34h4.47v.34c-.79.26-.96.99-.96,2.72v10.72c0,1.73.17,2.45.96,2.72v.34h-4.47v-.34Z" fill="#00318b"/>
      <path d="M37.44,83.51v-.34c.79-.26.96-.99.96-2.72v-10.72c0-1.73-.17-2.45-.96-2.72v-.34h11.54l.26,3.39-.31.07c-.96-2.36-2.48-3.08-5.17-3.08h-2.81v7.21h2.31c2.93,0,3.77-.58,4.16-1.83h.34v4.04h-.34c-.38-1.25-1.23-1.83-4.16-1.83h-2.31v7.26c0,.77.43,1.2,1.2,1.2h2.31c2.43,0,4.08-.72,5-3.17l.31.05-.17,3.51h-12.16Z" fill="#00318b"/>
      <path d="M51.74,83.51v-.34c.79-.26.96-.99.96-2.72v-10.72c0-1.73-.17-2.45-.96-2.72v-.34h4.47v.34c-.79.26-.96.99-.96,2.72v12.14c0,.77.43,1.2,1.2,1.2h1.97c2.43,0,3.68-.58,4.64-2.64l.31.05-.19,3.03h-11.44Z" fill="#00318b"/>
      <path d="M69.91,75.39c0-4.85,3.84-8.87,9.73-8.87,1.78,0,4.25.34,5.5,1.18l.1,3.17-.29.07c-.99-2.48-3.46-3.96-5.94-3.96-3.85,0-6.56,2.55-6.56,7.33s2.74,8.94,7.43,8.94c2.69,0,4.54-1.63,5.41-4.13l.31.05-.38,3.44c-1.27.58-3.1,1.15-6.03,1.15-5.74,0-9.28-2.98-9.28-8.36Z" fill="#00318b"/>
      <path d="M87.95,75.03c0-4.76,3.51-8.53,8.6-8.53,4.06,0,8.58,2.79,8.58,8.68s-4.54,8.58-8.58,8.58-8.6-2.69-8.6-8.72ZM102.71,77.07c-.36-5.12-3.24-9.95-7.4-9.95-3.27,0-5.12,2.55-4.85,6.44.34,4.81,3.39,9.45,7.47,9.45,3.68,0,5-2.76,4.78-5.94Z" fill="#00318b"/>
      <path d="M108.26,69.48v9.54c0,2.93.58,3.77,1.83,4.16v.34h-3.22v-.34c.79-.26.96-.99.96-2.72v-10.72c0-1.73-.22-2.45-1.25-2.72v-.34h2.72l10.09,12.64v-8.15c0-2.93-.58-3.77-1.83-4.16v-.34h3.24v.34c-.79.26-.96.99-.96,2.72v13.96h-.31l-11.27-14.23Z" fill="#00318b"/>
      <path d="M122.58,82.05l-.1-3.61.31-.05c1.01,2.74,3.15,4.85,6.34,4.85,1.66,0,3.2-1.06,3.2-3.03,0-2.35-3.1-3.46-5.02-4.23-2.48-1.03-4.54-1.85-4.54-4.64,0-2.98,2.4-4.83,6.18-4.83,1.78,0,3.37.38,4.61,1.01l.1,3.12-.26.1c-.99-2.48-3.03-3.82-5.36-3.82-1.92,0-3.44,1.13-3.44,3.03,0,2.14,2.43,3,4.35,3.77,2.45.94,5.36,2.02,5.36,4.9,0,3.29-3.03,5.12-5.79,5.12-2.47,0-4.71-.79-5.94-1.71Z" fill="#00318b"/>
      <path d="M136.79,76.98v-7.23c0-1.73-.17-2.45-.96-2.72v-.34h4.47v.34c-.79.26-.96.99-.96,2.72v7.43c0,4.37,2.16,6.01,5.43,6.01,2.02,0,4.64-1.49,4.64-6.15v-5.84c0-2.93-.58-3.77-1.83-4.16v-.34h3.22v.34c-.79.26-.96.99-.96,2.72v7.23c0,4.83-2.52,6.78-6.03,6.78s-7.02-1.61-7.02-6.78Z" fill="#00318b"/>
      <path d="M152.57,83.51v-.34c.79-.26.96-.99.96-2.72v-10.72c0-1.73-.17-2.45-.96-2.72v-.34h4.47v.34c-.79.26-.96.99-.96,2.72v12.14c0,.77.43,1.2,1.2,1.2h1.97c2.43,0,3.68-.58,4.64-2.64l.31.05-.19,3.03h-11.44Z" fill="#00318b"/>
      <path d="M165.79,83.18c.79-.26.96-.99.96-2.72v-13.34h-.75c-2.14,0-3.22.6-4.11,2.52l-.29-.05.14-2.91h12.52l.14,2.91-.29.05c-.89-1.92-1.97-2.52-4.11-2.52h-.7v13.34c0,1.73.17,2.45.96,2.72v.34h-4.49v-.34Z" fill="#00318b"/>
      <path d="M175.86,83.18c.79-.26.96-.99.96-2.72v-10.72c0-1.73-.17-2.45-.96-2.72v-.34h4.47v.34c-.79.26-.96.99-.96,2.72v10.72c0,1.73.17,2.45.96,2.72v.34h-4.47v-.34Z" fill="#00318b"/>
      <path d="M183.98,69.48v9.54c0,2.93.58,3.77,1.83,4.16v.34h-3.22v-.34c.79-.26.96-.99.96-2.72v-10.72c0-1.73-.22-2.45-1.25-2.72v-.34h2.72l10.09,12.64v-8.15c0-2.93-.58-3.77-1.83-4.16v-.34h3.24v.34c-.79.26-.96.99-.96,2.72v13.96h-.31l-11.27-14.23Z" fill="#00318b"/>
      <path d="M198.67,75.03c0-4.61,3.63-8.51,9.04-8.51,1.49,0,3.97.34,5.21,1.18l.1,3.17-.29.07c-.99-2.48-3.51-3.96-5.91-3.96-3.15,0-5.58,2.11-5.62,6.46-.05,4.54,2.72,9.73,7.33,9.73,1.51,0,2.88-.62,3.48-1.83v-2.19c0-1.87-.22-2.55-1.25-2.83v-.34h3.73v4.42c-1.8,2.36-4.76,3.34-6.75,3.34-5.53,0-9.06-3.46-9.06-8.72Z" fill="#00318b"/>
      <path d="M221.42,83.51v-.34c.79-.26.96-.99.96-2.72v-10.72c0-1.73-.17-2.45-.96-2.72v-.34h4.47v.34c-.79.26-.96.99-.96,2.72v12.14c0,.77.43,1.2,1.2,1.2h1.97c2.43,0,3.68-.58,4.64-2.64l.31.05-.19,3.03h-11.44Z" fill="#00318b"/>
      <path d="M234.62,83.51v-.34c.79-.26.96-.99.96-2.72v-10.72c0-1.73-.17-2.45-.96-2.72v-.34h4.47v.34c-.79.26-.96.99-.96,2.72v12.14c0,.77.43,1.2,1.2,1.2h1.97c2.43,0,3.68-.58,4.64-2.64l.31.05-.19,3.03h-11.44Z" fill="#00318b"/>
      <path d="M245.57,75.39c0-4.85,3.84-8.87,9.73-8.87,1.78,0,4.25.34,5.5,1.18l.1,3.17-.29.07c-.99-2.48-3.46-3.96-5.94-3.96-3.85,0-6.56,2.55-6.56,7.33s2.74,8.94,7.43,8.94c2.69,0,4.54-1.63,5.41-4.13l.31.05-.38,3.44c-1.27.58-3.1,1.15-6.03,1.15-5.74,0-9.28-2.98-9.28-8.36Z" fill="#00318b"/>
    </g>
  </g>
</svg>